<?xml version="1.0" encoding="utf-8"?>
<!-- Generator: Adobe Illustrator 21.0.2, SVG Export Plug-In . SVG Version: 6.00 Build 0)  -->
<svg version="1.1" id="Layer_1" xmlns="http://www.w3.org/2000/svg" xmlns:xlink="http://www.w3.org/1999/xlink" x="0px" y="0px"
	 viewBox="0 0 1440 1440" style="enable-background:new 0 0 1440 1440;" xml:space="preserve">
<style type="text/css">
	.st0{fill:#FFFFFF;}
	.st1{fill:#EBA21D;}
</style>
<g>
	<path class="st0" d="M104.3,485.5h369.1v86.7h-268v95.4h254.3v86H205.4v113.4h277.4v86.7H104.3V485.5z"/>
	<path class="st1" d="M992.8,548.3c47-46.7,106.1-70.1,177.3-70.1c59.2,0,110.8,16.9,154.6,50.6l-58.5,68.6
		c-25-18.3-54.7-27.5-88.9-27.5c-44.3,0-80.3,14.6-108,43.7c-27.7,29.1-41.5,64.4-41.5,105.8s13.6,76.8,40.8,106.2
		c27.2,29.4,61.3,44.1,102.2,44.1c41.9,0,76.8-12.5,104.7-37.6l61.4,69.3c-45.3,40-100.9,60-166.9,60c-71.3,0-130.4-23.4-177.3-70.1
		c-47-46.7-70.4-104-70.4-171.9C922.3,652.1,945.8,595,992.8,548.3z"/>
	<path class="st0" d="M912.5,866.9H649.6l60-68.6L906,561.3v-75.9H800.6v-63.9h-56.5v63.9h-53.7v-63.9H634v63.9H532.6v86.7h247.1
		l-6.5,5.8c-4.3,3.9-10.8,10.5-19.5,19.9c-8.7,9.4-17.6,19.6-26.7,30.7L521,878.4v75.1h113v63.7h56.5v-63.7h53.7v63.7h56.5v-63.7
		h112V866.9z"/>
</g>
</svg>
